<?xml version="1.0" encoding="UTF-8"?>
<svg id="Layer_1" xmlns="http://www.w3.org/2000/svg" version="1.1" viewBox="0 0 194.47 194.2">
  <!-- Generator: Adobe Illustrator 30.2.1, SVG Export Plug-In . SVG Version: 2.1.1 Build 1)  -->
  <defs>
    <style>
      .st0 {
        fill: #fff;
      }
    </style>
  </defs>
  <path d="M194.39,167.81c0,13.83-12.31,26.32-25.97,26.33l-141.57.07C12.01,194.21,0,181.09,0,166.56L.04,27.34C.04,13.44,11.59.1,25.88.09L167.89,0c14.71,0,26.59,12.93,26.58,27.37l-.09,140.43ZM69.09,127.9l14.86-21.77c3.26-4.78,14.93-19.72,20.61-21.75-.84,4.69-2.31,8.44-3.74,12.67-3.8,11.3-9.57,27.96-6.02,39.39,1.06,3.42,3.5,6.24,6.91,6.95,2.42.5,4.87-.7,5.12-3-1.64.65-3.83,1.5-5.29.34-8.49-6.79,2.98-37.3,6.05-46.45,1.06-3.17,3.89-11.25.13-13.16-8.46-4.29-31.01,30.55-36.08,36.93.83-3.4,1.98-6.35,3.29-9.54l11.43-27.87c1.87-4.56,5.73-15.28,1.5-18.53-7.15-5.52-22.6,13.28-27.48,18.06,1.89-7.5,9.29-32.84-4.34-32.66-4.06.06-7.94,1.24-11.52,3.43-10.84,6.64-19.98,15.97-25.86,27.25-2.24,4.3-3.41,8.98-2.49,13.51.73,3.64,3.57,6.47,7.28,6.23.52-.03,1.56-.74,1.51-1.18-.04-.36-.68-1.06-1.17-1.18-6.86-1.77-2.82-13.18-.05-17.99,4.93-8.58,11.5-15.95,19.39-21.9,3.24-2.45,14.2-9.6,15.77-2.17.61,2.91.54,6.17,0,9.27-1.7,9.67-4.16,18.81-7.25,28.15-9.7,12.86-20.39,29.25-25.79,44.38-1.01,2.84-2.73,9.94.67,11.16,10.07,3.6,29.13-49.78,31.54-58.51,5.54-7.18,17.4-21.55,26.59-24.08,2.26,4.21-6.85,24.07-9.06,29.58l-10.41,25.97c-1.02,2.56-3.24,9.15.42,10.14,1.15.31,2.62-.38,3.49-1.66ZM146.47,133.95l.02-62.11,24.42-.02-.07-11.83h-62.02s-.02,11.82-.02,11.82l24.36.05.03,62.19,13.28-.1Z"/>
  <g>
    <polygon class="st0" points="146.47 133.95 133.19 134.05 133.16 71.86 108.8 71.81 108.83 60 170.85 60 170.91 71.82 146.49 71.84 146.47 133.95"/>
    <g>
      <path class="st0" d="M69.09,127.9c-.87,1.28-2.34,1.97-3.49,1.66-3.65-.99-1.44-7.58-.42-10.14l10.41-25.97c2.21-5.5,11.32-25.37,9.06-29.58-9.2,2.53-21.06,16.9-26.59,24.08-2.41,8.73-21.47,62.11-31.54,58.51-3.4-1.22-1.69-8.32-.67-11.16,5.4-15.13,16.09-31.52,25.79-44.38,3.08-9.33,5.54-18.48,7.25-28.15.55-3.11.62-6.36,0-9.27-1.57-7.44-12.53-.28-15.77,2.17-7.89,5.95-14.46,13.33-19.39,21.9-2.76,4.81-6.81,16.21.05,17.99.49.13,1.13.83,1.17,1.18.05.44-.99,1.15-1.51,1.18-3.71.23-6.55-2.6-7.28-6.23-.91-4.53.25-9.21,2.49-13.51,5.88-11.28,15.01-20.61,25.86-27.25,3.58-2.19,7.46-3.37,11.52-3.43,13.62-.19,6.23,25.15,4.34,32.66,4.88-4.77,20.33-23.58,27.48-18.06,4.22,3.26.37,13.97-1.5,18.53l-11.43,27.87c-1.31,3.2-2.46,6.14-3.29,9.54,5.08-6.39,27.63-41.23,36.08-36.93,3.76,1.91.93,9.98-.13,13.16-3.07,9.15-14.54,39.67-6.05,46.45,1.46,1.17,3.65.32,5.29-.34-.25,2.3-2.7,3.5-5.12,3-3.4-.71-5.84-3.53-6.91-6.95-3.55-11.43,2.22-28.09,6.02-39.39,1.42-4.23,2.89-7.98,3.74-12.67-5.68,2.03-17.35,16.97-20.61,21.75l-14.86,21.77ZM28.12,142.38c3.31-2.69,4.22-5.86,6.22-8.8,4.89-10.24,10.04-20.22,13.2-31.56-6.1,7.72-20.41,31.37-19.43,40.36Z"/>
      <path d="M28.12,142.38c-.98-8.99,13.32-32.64,19.43-40.36-3.17,11.34-8.31,21.33-13.2,31.56-2,2.93-2.92,6.11-6.22,8.8Z"/>
    </g>
  </g>
</svg>